<?xml version="1.0" encoding="UTF-8" standalone="no"?>
<!DOCTYPE svg PUBLIC "-//W3C//DTD SVG 1.1//EN" "http://www.w3.org/Graphics/SVG/1.1/DTD/svg11.dtd">
<svg version="1.1" xmlns="http://www.w3.org/2000/svg" xmlns:xlink="http://www.w3.org/1999/xlink" preserveAspectRatio="xMidYMid meet" viewBox="0 0 640 640" width="1920" height="1920"><defs><path d="M640 0C640 0 640 0 640 0C640 384 640 597.33 640 640C640 640 640 640 640 640C256 640 42.67 640 0 640C0 640 0 640 0 640C0 256 0 42.67 0 0C0 0 0 0 0 0C384 0 597.33 0 640 0Z" id="a5YevvkERh"></path><path d="M561.22 153.56C589.88 182.68 602.82 226.43 594.68 266.48C586.36 307.35 557.83 343.78 558.75 385.47C559.34 412.95 572.87 438.5 576.9 465.7C582.06 500.53 570.59 537.43 546.59 563.16C512.8 599.41 459.73 610.71 410.18 610.8C360.62 610.89 311.11 601.65 261.7 605.17C225.72 607.73 190.29 617.06 154.22 617.65C118.15 618.25 79.2 608.19 56.8 579.89C31.57 548.03 33.99 502.5 43.73 463.05C53.47 423.6 69.42 384.6 67.14 344.05C64.53 297.75 38.34 254.59 39.3 208.24C40.07 169.93 60.92 132.53 93.15 111.73C125.38 90.93 167.98 87.32 203.23 102.41C239.25 117.81 267.59 151.09 306.31 157.45C355.5 165.49 399.84 127.32 448.9 118.23C489.08 110.73 532.55 124.44 561.22 153.56Z" id="f1n0Zt2HTC"></path><path d="M212.66 527.27C230.99 520.14 246.9 507.93 264.78 499.75C285.03 490.47 307.66 486.45 329.83 488.27C354.79 490.29 378.7 499.47 403.61 502.03C428.53 504.59 456.91 498.65 470.81 477.81C483.06 459.43 480.55 435.15 476.02 413.53C471.5 391.91 465.42 369.28 471.95 348.16C479.04 325.35 499.11 309.62 516.07 292.8C533.03 275.98 548.57 253.03 542.77 229.85C536.82 206.22 509.85 192.96 485.49 194.19C461.17 195.43 438.9 207.54 417.51 219.25C396.11 230.95 373.62 242.74 349.26 243.34C328.87 243.84 309.21 236.34 290.42 228.43C271.63 220.53 252.66 211.93 232.37 210.01C212.07 208.09 189.71 214.17 177.65 230.63C163.34 250.15 167.41 277.44 175.22 300.39C183.04 323.29 194.06 346.38 191.63 370.47C189.76 389.03 179.98 405.81 169.87 421.49C159.77 437.17 148.89 452.89 144.23 470.99C139.52 489.14 142.49 510.54 156.71 522.7C171.66 535.5 194.33 534.4 212.66 527.27Z" id="c5LBQcQJ9"></path><path d="M355.47 72.09C347.57 76.16 339.84 82.47 338.19 91.25C336.18 101.67 343.91 112.18 353.74 116.21C363.57 120.23 374.77 119.04 385.01 116.3C393.87 113.92 402.7 110.17 408.91 103.45C415.18 96.73 418.24 86.45 414.54 78.08C409.55 66.61 394.88 63.09 382.45 64.23C373.07 65.1 363.89 67.75 355.47 72.09Z" id="e3JMEXNCjD"></path><path d="M72.41 51.7C66.93 56.32 62.17 62.13 60.3 68.98C58.42 75.89 59.84 83.98 65.14 88.78C73.14 96.05 86.17 93.39 95.22 87.45C102.17 82.93 108.21 76.48 110.45 68.53C112.69 60.57 110.4 51.02 103.63 46.26C94.31 39.73 81.1 44.34 72.41 51.7Z" id="b3GWemcGC"></path><path d="M58.15 108.8C53.9 104.32 45.76 104.41 41.6 109.03C38.26 112.73 37.85 118.72 40.64 122.83C44.11 127.95 52.16 129.19 57.01 125.3C61.85 121.42 62.4 113.28 58.15 108.8Z" id="g4SOseD3Os"></path><path d="M597.44 324.85C591.86 325.44 587.11 329.55 584.46 334.54C581.85 339.52 581.12 345.23 580.98 350.86C580.71 362.47 582.86 374.08 587.29 384.82C589.94 391.27 594.15 397.99 600.96 399.68C606.35 401.01 612.21 398.63 616.09 394.61C619.98 390.58 622.08 385.23 623.36 379.79C626.61 365.99 624.46 350.95 617.51 338.56C613.3 331.06 605.99 323.93 597.44 324.85Z" id="b4Av8DvRx"></path><path d="M31.95 288.32C28.66 291.02 28.21 295.91 28.39 300.21C28.71 308.02 30.22 315.79 32.87 323.15C35.2 329.69 39.36 336.64 46.22 337.74C54.67 339.11 61.81 330.01 61.76 321.46C61.71 312.91 56.91 305.23 52.25 298.06C49.97 294.45 47.54 290.79 43.93 288.5C40.37 286.17 35.29 285.62 31.95 288.32Z" id="h1GfWt99Da"></path><path d="M28.53 370.7C28.85 379.02 37.07 386.19 45.35 385.46C53.67 384.69 60.43 376.14 59.25 367.91C58.15 360.14 50.38 353.97 42.56 354.7C34.74 355.43 28.21 362.88 28.53 370.7Z" id="a6NbAKTIyo"></path><path d="M181.39 151.68C173.35 164.25 166.49 177.55 160.91 191.41C179.66 184.46 199.63 180.94 219.61 180.98C228.11 181.03 238.49 180.66 242.47 173.17C244.62 169.14 244.02 164.11 242.06 160C240.09 155.89 236.94 152.5 233.83 149.21C225.78 140.71 215.95 131.47 204.34 132.85C194.19 134.03 186.93 143.04 181.39 151.68Z" id="ggs9NwdZe"></path><path d="M325.99 102.99C327.73 101.99 329.33 100.66 330.7 99.15C329.83 97.74 328.59 96.55 327.13 95.77C323.98 94.03 320.18 93.85 316.57 93.81C291.06 93.35 265.46 96.18 240.69 102.22C236.02 103.36 231.22 104.69 227.43 107.61C223.63 110.54 221.03 115.57 222.26 120.23C222.4 120.78 222.63 121.33 222.86 121.83C231.36 120.46 239.86 119.04 248.37 117.67C268.98 114.24 289.65 110.86 310.31 107.52C315.7 106.65 321.23 105.69 325.99 102.99Z" id="fcS5TAOwB"></path><path d="M310.31 107.47C289.65 110.86 268.98 114.19 248.37 117.58C239.86 118.95 231.36 120.37 222.86 121.74C224.59 125.49 228.71 127.91 232.87 128.64C237.58 129.42 242.42 128.41 247.09 127.36C271.91 121.92 296.73 116.43 321.51 110.99C325.58 110.08 330.33 108.62 331.57 104.64C332.16 102.77 331.7 100.75 330.7 99.06C329.33 100.66 327.73 101.94 325.99 102.95C321.23 105.69 315.7 106.61 310.31 107.47Z" id="bdXaul9LV"></path><path d="M412.62 388.34C417.14 382.86 421.3 377.01 424.96 370.88C426.56 368.18 428.11 365.39 428.66 362.29C429.21 359.18 428.53 355.75 426.24 353.6C423.86 351.36 420.25 350.95 417.1 351.77C413.94 352.59 411.15 354.33 408.46 356.11C410.24 359.95 411.66 364.66 413.39 368.5C409.6 369.55 404.11 371.11 400.32 372.16C398.4 376.27 396.39 380.62 396.85 385.14C397.3 389.67 401.28 394.1 405.76 393.37C408.64 392.91 410.79 390.58 412.62 388.34Z" id="d1WchbbxL"></path><path d="M474.06 534.67C474.83 527.41 476.16 520.18 478.08 513.01C477.3 513.92 476.53 514.79 475.75 515.66C475.41 519.46 474.23 532.77 474.06 534.67Z" id="b1hLdNb6jC"></path><path d="M474.06 534.67C474.06 534.72 474.06 534.72 474.06 534.67C474.06 534.67 474.06 534.67 474.06 534.67C474.06 534.7 474.06 534.7 474.06 534.67Z" id="cGYUhsPL0"></path><path d="M336.18 406.26C332.16 422.26 329.55 439.31 335.59 454.54C343.41 474.19 364.11 485.49 385.51 487.68C386.65 483.34 386.74 476.3 386.74 476.3C368.78 475.93 352.37 463.54 344.05 447.54C337.46 434.97 335.41 420.53 336.18 406.26Z" id="c18pmLrv1q"></path><path d="M421.94 237.3C417.97 242.15 414.08 247.09 410.33 252.11C423.13 260.8 438.31 266.06 453.71 267.25C457.42 264.09 461.26 261.12 465.23 258.33C448.78 255.22 433.65 247.68 421.94 237.3Z" id="b1c7fYNsOO"></path><path d="M390.45 406.81C396.66 410.01 404.8 409.33 411.29 406.58C417.83 403.84 423.09 399.36 428.21 394.97C434.93 389.21 441.69 383.41 446.54 376.41C451.38 369.42 454.22 361.05 452.25 353.05C450.29 345.1 442.83 337.87 433.42 336.87C421.94 335.68 409.42 342.63 401.23 349.67C407.54 318.58 427.2 289.42 453.71 267.2C438.26 266.01 423.13 260.75 410.33 252.07C376.46 297.14 351.36 348.75 336.96 403.2C336.69 404.21 336.41 405.21 336.18 406.26C335.36 420.53 337.46 434.97 344.05 447.54C352.37 463.54 368.78 475.93 386.79 476.3C386.79 476.3 386.7 483.38 385.55 487.68C380.34 508.3 370.93 527.91 357.85 544.69C389.17 574.86 432.96 590.81 475.61 582.4C473.19 566.95 472.32 550.77 474.06 534.72C404.75 510.35 379.7 458.51 390.45 406.81ZM413.44 368.46C411.66 364.62 410.24 359.91 408.5 356.07C411.2 354.29 413.99 352.5 417.14 351.73C420.3 350.95 423.91 351.36 426.29 353.55C428.57 355.7 429.21 359.18 428.71 362.24C428.21 365.3 426.65 368.14 425.01 370.83C421.35 376.96 417.19 382.81 412.66 388.3C410.83 390.54 408.64 392.87 405.81 393.33C401.33 394.01 397.39 389.53 396.94 385.05C396.48 380.57 398.4 376.23 400.37 372.11C404.16 371.06 409.65 369.51 413.44 368.46Z" id="aHiBavwl7"></path><path d="M552.39 238.82C533.97 224.92 520.3 205.54 515.91 185.61C512.02 191.32 508.37 199.87 504.43 205.58C490.49 196.99 479.89 184.42 474.67 170.34C470.79 177.56 467.54 187.76 463.66 194.98C452.27 187.02 443.82 175.09 441.21 162.7C438.33 169.7 434.08 177.42 431.15 184.42C418.35 174.68 409.26 159 411.68 144.46C394.67 164.26 390.24 191.5 400.3 214.5C404.41 223.96 410.99 232.6 419.18 239.87C430.93 250.25 446.06 257.74 462.47 260.9C505.71 259.76 568.57 259.12 594.4 306.84C590.88 280.69 575.79 256.46 552.39 238.82Z" id="d2Y93Ha6rF"></path><path d="M412.62 388.34C417.14 382.86 421.3 377.01 424.96 370.88C426.56 368.18 428.11 365.39 428.66 362.29C429.21 359.18 428.53 355.75 426.24 353.6C423.86 351.36 420.25 350.95 417.1 351.77C413.94 352.59 411.15 354.33 408.46 356.11C410.24 359.95 411.66 364.66 413.39 368.5C409.6 369.55 404.11 371.11 400.32 372.16C398.4 376.27 396.39 380.62 396.85 385.14C397.3 389.67 401.28 394.1 405.76 393.37C408.64 392.91 410.79 390.58 412.62 388.34Z" id="kprUGfAgB"></path><path d="M412.62 388.34C417.14 382.86 421.3 377.01 424.96 370.88C426.56 368.18 428.11 365.39 428.66 362.29C429.21 359.18 428.53 355.75 426.24 353.6C423.86 351.36 420.25 350.95 417.1 351.77C413.94 352.59 411.15 354.33 408.46 356.11C410.24 359.95 411.66 364.66 413.39 368.5C409.6 369.55 404.11 371.11 400.32 372.16C398.4 376.27 396.39 380.62 396.85 385.14C397.3 389.67 401.28 394.1 405.76 393.37C408.64 392.91 410.79 390.58 412.62 388.34Z" id="b1E8kWJPKJ"></path><path d="M475.75 515.66L475.75 515.66C475.75 515.66 475.75 515.66 475.75 515.66C452.8 510.99 431.68 500.07 416 484.94C412.66 481.74 409.55 478.31 406.72 474.74C390.67 454.4 386.24 431.09 390.45 406.77C390.45 406.77 390.45 406.77 390.45 406.77C379.7 458.51 404.8 510.35 474.06 534.72C474.28 532.18 474.85 525.82 475.75 515.66Z" id="bf0p8lM6G"></path><path d="M463.03 259.77C430.75 282.77 406.25 315.68 399.03 351.15C407.21 344.11 419.69 337.12 431.21 338.35C440.63 339.36 448.12 346.54 450.04 354.54C452.01 362.49 449.18 370.9 444.33 377.9C439.48 384.89 432.72 390.7 426 396.46C420.88 400.85 415.62 405.33 409.08 408.07C402.55 410.81 394.46 411.5 388.24 408.3C388.24 408.3 388.24 408.3 388.24 408.3C384.03 432.62 388.47 455.93 404.51 476.27C407.35 479.84 410.46 483.27 413.79 486.47C429.47 501.55 450.59 512.53 473.54 517.19C473.54 517.19 473.54 517.19 473.54 517.19C474.32 516.32 475.1 515.45 475.87 514.58C492.6 495.7 505.82 473.81 522.91 455.2C545.68 430.38 568.76 405.14 582.39 375.79C590.43 358.42 594.82 339.82 595.6 321.17C595.78 315.91 595.55 310.79 594.87 305.71C569.04 257.94 506.18 258.63 463.03 259.77Z" id="a4Mturota"></path><path d="M163.52 462.49C145.33 443.89 130.1 423.09 121.01 398.81C107.57 362.83 109.39 322.33 121.1 285.76C132.8 249.19 153.97 216.27 178.29 186.56C176.01 181.62 157.8 142.13 155.52 137.19C99.66 174.08 60.48 234.51 47.13 299.98C43.2 374.81 69.81 451.11 120.27 506.65C130.24 488.05 145.14 472.55 163.52 462.49Z" id="a2a3O2scoi"></path><path d="M120.27 506.65C69.81 451.11 43.15 374.81 47.13 299.98C42.93 320.64 41.28 341.81 42.56 362.93C47.77 450.88 102.58 534.22 181.35 573.81C185.41 567.6 217.92 517.93 221.99 511.73C201.69 496.59 181.21 480.59 163.52 462.49C145.14 472.55 130.24 488.05 120.27 506.65Z" id="a23q1lvWqM"></path><path d="M234.29 37.12L234.29 33.05C229.81 35.52 227.33 36.89 226.83 37.17C224.46 38.22 222.58 40.37 221.99 43.11C218.78 56.55 193.15 164.11 189.94 177.55C188.94 181.99 191.68 186.29 196.02 187.11C202.46 188.37 253.99 198.51 260.43 199.77C262.26 200.14 264.09 199.82 265.69 198.99C265.69 198.99 265.69 198.99 265.69 198.99C265.69 198.99 265.69 198.99 265.69 198.99C265.87 198.9 266.06 198.81 266.19 198.72C266.79 198.39 269.78 196.75 275.15 193.78L270.31 192.59C289.43 112.34 300.05 67.75 302.17 58.83C303.18 54.4 300.43 50.1 296.09 49.23C287.85 47.62 267.25 43.58 234.29 37.12Z" id="i6iW2dhh"></path><path d="M240.41 31.77C236.07 30.9 231.73 33.83 230.72 38.26C227.52 51.71 201.88 159.26 198.67 172.71C197.67 177.14 200.41 181.44 204.75 182.26C211.2 183.52 262.72 193.62 269.17 194.88C273.51 195.75 277.85 192.82 278.86 188.39C282.06 174.94 307.7 67.39 310.9 53.94C311.91 49.55 309.21 45.26 304.87 44.43C291.98 41.9 246.86 33.04 240.41 31.77Z" id="a1WreiiiCC"></path><path d="M237.81 184.96C234.97 184.41 233.23 181.62 233.87 178.79C234.51 175.91 237.3 174.03 240.14 174.58C242.93 175.13 244.71 177.92 244.07 180.75C243.43 183.63 240.64 185.51 237.81 184.96Z" id="bkVk0CPav"></path><path d="M200.09 163.79C208.09 151.77 212.34 135.73 203.7 124.21C214.22 113.01 220.53 98.83 225.23 84.16C226.7 79.59 227.84 74.74 226.93 69.99C226.01 65.28 222.58 60.75 217.83 59.98C211.02 58.83 205.53 65.33 201.65 71.04C183.45 97.83 162.93 122.74 144.73 149.53C146.51 164.66 160.37 181.81 170.01 193.69C182.17 185.87 192.09 175.82 200.09 163.79Z" id="dS8K0srVk"></path><path d="M284.39 135.41C286.45 137.6 289.83 137.83 292.8 137.55C296.18 137.28 299.61 136.55 302.35 134.63C305.14 132.71 307.11 129.37 306.74 126.03C306.42 123.43 304.64 121.1 302.35 119.77C300.07 118.49 297.28 118.17 294.67 118.58C290.42 119.31 286.54 121.92 284.34 125.62C282.56 128.64 282.01 132.85 284.39 135.41Z" id="a187BkrErL"></path><path d="M278.49 156.71C280.55 158.9 283.93 159.13 286.9 158.86C290.29 158.58 293.71 157.85 296.46 155.93C299.2 154.01 301.21 150.67 300.85 147.34C300.53 144.73 298.74 142.4 296.46 141.07C294.17 139.75 291.38 139.47 288.78 139.89C284.53 140.66 280.64 143.27 278.45 146.93C276.66 149.94 276.11 154.15 278.49 156.71Z" id="d1c9UQJWa"></path><path d="M274.65 177.51C276.71 179.7 280.09 179.93 283.06 179.66C286.45 179.38 289.87 178.65 292.62 176.73C295.41 174.81 297.37 171.47 297.01 168.14C296.69 165.53 294.9 163.2 292.62 161.87C290.33 160.59 287.54 160.27 284.94 160.69C280.69 161.42 276.8 164.07 274.61 167.73C272.82 170.74 272.27 174.95 274.65 177.51Z" id="aho27hrSj"></path><path d="M238.86 38.86C238.35 38.77 237.81 39.09 237.71 39.63C236.8 43.47 229.44 74.11 228.53 77.94C228.8 89.05 229.58 100.25 233.28 110.72C237.67 123.15 246.95 134.58 259.7 137.97C267.89 140.16 275.15 145.01 280.37 151.5C282.73 141.61 301.64 62.55 304 52.66C304.09 52.11 303.77 51.61 303.27 51.47C290.39 48.95 245.3 40.12 238.86 38.86Z" id="a267RbSTsi"></path><path d="M240.54 584.05C202.33 576 166.3 557.76 137.14 531.79C133.75 541.44 132.02 551.63 132.06 561.83C163.24 581.03 198.9 598.08 233.09 611.11C232.52 613.03 229.69 622.67 224.59 640C229.69 640 232.52 640 233.09 640C245.62 596.39 271.22 556.66 305.87 527.13C277.3 534.58 251.61 556.66 240.54 584.05Z" id="dw5bku62q"></path><path d="M507.2 620.21C485.62 628.21 463.36 634.93 440.78 640.05C452.76 640.05 548.61 640.05 560.59 640.05C528.59 599.45 485.12 566.26 436.57 548.53C463.91 568.23 487.91 592.55 507.2 620.21Z" id="c2cb95eaOV"></path><path d="M433.63 547.66C395.41 534.13 354.86 529.05 315.28 520.32C275.69 511.63 231.98 500.98 201.36 474.47C181.61 478.72 163.46 489.92 150.84 505.69C144.62 513.46 139.73 522.33 136.44 531.75C165.61 557.71 201.63 575.91 239.85 584C250.96 556.62 276.6 534.54 305.17 527.09C270.52 556.62 244.88 596.34 232.44 640C253.21 640 419.35 640 440.12 640C462.7 634.88 484.97 628.21 506.54 620.16C487.21 592.5 463.21 568.18 435.87 548.48C435.14 548.21 434.36 547.93 433.63 547.66Z" id="dbGfnkSJ7n"></path><path d="M228.53 77.99C226.95 84.58 214.33 137.28 212.75 143.86C216.32 141.35 219.57 138.33 222.35 134.9C220.21 117.58 222.4 99.75 228.71 83.47C228.62 81.65 228.57 79.82 228.53 77.99Z" id="eMo1GaJ23"></path><path d="M228.71 83.47C222.4 99.75 220.21 117.58 222.31 134.9C225.28 131.25 227.75 127.22 229.58 122.83C231.31 118.63 232.41 114.19 232.91 109.67C230.13 101.26 229.12 92.39 228.71 83.47Z" id="afFv6sY4t"></path><path d="M252.8 155.15C256.55 155.29 260.25 153.19 262.13 149.94C263.41 147.66 263.77 145.05 264.14 142.45C264.27 141.53 264.41 140.57 264.55 139.66C262.95 139.02 261.35 138.42 259.7 138.01C252.98 136.18 247.18 132.16 242.61 126.9C241.69 129.97 240.87 133.07 240.55 136.23C240.05 140.39 240.55 144.82 242.65 148.53C244.71 152.23 248.59 155.02 252.8 155.15Z" id="a7Ol7Tokh6"></path><path d="M237.81 167.31C245.58 171.2 253.67 174.45 261.94 177.05C263.02 177.26 271.61 178.94 272.69 179.15C273.19 179.25 273.74 178.93 273.83 178.38C274.47 175.69 279.63 154.23 280.27 151.54C276.11 146.38 270.67 142.26 264.46 139.7C264.32 140.62 264.18 141.58 264.05 142.49C263.68 145.05 263.31 147.7 262.03 149.99C260.21 153.23 256.46 155.34 252.71 155.2C248.46 155.06 244.62 152.23 242.56 148.57C240.5 144.91 240 140.48 240.41 136.27C240.73 133.07 241.55 130.01 242.47 126.95C238.4 122.29 235.25 116.66 233.19 110.81C233.05 110.45 232.96 110.13 232.82 109.76C232.32 114.29 231.22 118.72 229.49 122.93C226.01 131.34 220.07 138.65 212.66 143.91C212.54 144.4 211.59 148.31 211.47 148.8C212.34 149.58 213.12 150.4 213.94 151.18C220.89 157.85 229.21 163.02 237.81 167.31Z" id="b1y9NtHfn1"></path><path d="M213.94 151.18C213.12 150.4 212.34 149.58 211.57 148.75C211.17 150.41 207.99 163.69 207.59 165.35C207.45 165.9 207.82 166.4 208.32 166.49C213.69 167.54 256.62 175.95 261.99 177.01C253.67 174.45 245.58 171.2 237.81 167.31C229.17 163.02 220.89 157.85 213.94 151.18Z" id="c147xkQfKF"></path><path d="M246.4 135.31C244.98 133.07 244.16 130.56 243.75 127.95C243.66 128.32 243.57 128.73 243.47 129.1C242.61 132.71 242.1 136.59 243.52 140.07C245.17 144.09 249.46 146.88 253.76 146.65C257.65 146.42 261.3 143.73 262.63 140.07C260.39 141.53 257.51 142.03 254.86 141.49C251.34 140.75 248.32 138.38 246.4 135.31Z" id="c3SiZcIQuN"></path><path d="M255.27 121.23C252.62 119.13 249.14 117.85 245.76 118.22C245.62 121.55 244.57 124.75 243.7 127.95C244.11 130.56 244.94 133.07 246.35 135.31C248.27 138.33 251.29 140.75 254.81 141.49C257.46 142.03 260.34 141.53 262.58 140.07C262.72 139.66 262.86 139.25 262.95 138.83C263.68 135.68 262.72 132.34 261.35 129.37C259.93 126.26 257.97 123.38 255.27 121.23Z" id="a1FsLOzKeK"></path><path d="M287.27 96.91C287.27 96.41 287.22 95.91 287.18 95.36C287.13 95.36 265.69 91.25 255.77 85.76C255.77 85.76 252.02 91.15 249.14 97.51C250.83 94.77 252.98 92.25 255.5 90.19C265.6 94.13 276.43 96.41 287.27 96.91Z" id="bi9tPFRhS"></path><path d="M249.14 97.51C248.5 98.88 247.91 100.3 247.41 101.67C246.54 99.98 245.26 98.88 243.79 98.88C241.83 98.88 240.14 100.89 239.45 103.73C239.22 104.59 239.13 105.6 239.13 106.61C239.13 108.75 239.63 110.67 240.5 112.09C241.37 113.51 242.51 114.38 243.84 114.38C244.39 114.38 244.89 114.19 245.39 113.92C245.3 114.94 244.53 123.14 244.43 124.16C244.57 124.85 244.75 125.53 244.94 126.17C246.63 131.98 251.25 137.33 257.23 138.06C261.21 138.56 265.19 136.96 268.34 134.49C271.5 132.07 273.92 128.78 276.21 125.53C281.69 117.62 286.67 108.85 287.31 99.25C287.36 98.47 287.36 97.69 287.36 96.91C276.43 96.41 265.6 94.13 255.5 90.19C252.98 92.25 250.83 94.72 249.14 97.51Z" id="cDwDYf10k"></path><path d="M247.41 101.67C250.29 93.67 255.77 85.76 255.77 85.76C265.69 91.25 287.13 95.36 287.18 95.36C287.18 95.36 287.18 95.36 287.18 95.36C289.78 93.3 292.89 91.2 295.5 89.14C293.71 89.28 291.93 89.42 290.15 89.55C291.47 85.58 292.85 81.6 294.17 77.58C291.89 78.17 289.6 78.77 287.31 79.36C288.14 77.94 288.91 76.48 289.74 75.06C287.68 76.21 285.07 75.7 283.02 74.61C280.96 73.46 279.22 71.82 277.3 70.54C261.26 60.02 244.98 77.85 240.69 92.21C239.63 95.68 239.27 99.66 239.45 103.77C240.18 100.89 241.83 98.88 243.79 98.88C245.26 98.88 246.54 99.98 247.41 101.67Z" id="a5cH7Yc46g"></path><path d="M240.46 112.09C241.33 116.43 242.7 120.64 244.39 124.16C244.39 124.16 244.39 124.16 244.39 124.16C244.96 118.02 245.28 114.6 245.35 113.92C244.89 114.19 244.34 114.38 243.79 114.38C242.51 114.38 241.33 113.51 240.46 112.09Z" id="c6WCoACK13"></path><path d="M243.57 102.9C242.7 103.04 242.06 103.82 241.87 104.64C241.65 105.46 241.78 106.38 241.87 107.2C242.01 108.11 242.19 109.12 242.93 109.58C243.52 109.94 244.39 109.85 244.89 109.35C245.39 108.85 245.49 107.98 245.07 107.38C244.62 107.2 243.75 106.88 243.29 106.7C243.89 106.1 244.98 105.23 245.17 104.41C245.35 103.59 244.43 102.77 243.57 102.9Z" id="g2Gnh7fJm"></path><path d="M198.45 202.74C198.28 202.33 197.42 200.26 195.89 196.53C196.24 200.56 196.44 202.8 196.48 203.25C198.45 224.73 186.19 244.98 166.26 253.21C165.85 253.38 163.78 254.24 160.05 255.77C164.08 255.41 166.32 255.22 166.77 255.18C188.25 253.21 208.5 265.46 216.73 285.39C216.9 285.81 217.76 287.88 219.29 291.61C218.93 287.58 218.74 285.34 218.7 284.89C216.73 263.41 228.98 243.15 248.91 234.93C249.33 234.76 251.4 233.9 255.13 232.37L248.41 232.96C220.59 226.1 203.93 216.03 198.45 202.74Z" id="bYfEr3IEG"></path><path d="M356.66 160.91C356.71 160.65 356.94 159.31 357.35 156.89C356.25 159.09 355.64 160.3 355.52 160.55C349.67 172.21 336.91 178.7 324.07 176.55C323.8 176.5 322.46 176.27 320.05 175.86C322.24 176.96 323.46 177.57 323.7 177.69C335.36 183.54 341.85 196.3 339.7 209.14C339.66 209.41 339.43 210.75 339.02 213.17C340.11 210.97 340.72 209.75 340.85 209.51C346.7 197.85 359.45 191.36 372.3 193.51C372.57 193.55 373.91 193.78 376.32 194.19L372.66 192.37C360.56 179.96 355.23 169.48 356.66 160.91Z" id="d13BQRdrzQ"></path></defs><g><g><g><use xlink:href="#a5YevvkERh" opacity="1" fill="#ffffff" fill-opacity="1"></use><g><use xlink:href="#a5YevvkERh" opacity="1" fill-opacity="0" stroke="#000000" stroke-width="1" stroke-opacity="0"></use></g></g><g><use xlink:href="#f1n0Zt2HTC" opacity="1" fill="#d5f0f9" fill-opacity="1"></use><g><use xlink:href="#f1n0Zt2HTC" opacity="1" fill-opacity="0" stroke="#000000" stroke-width="1" stroke-opacity="0"></use></g></g><g><use xlink:href="#c5LBQcQJ9" opacity="1" fill="#d4ecf6" fill-opacity="1"></use><g><use xlink:href="#c5LBQcQJ9" opacity="1" fill-opacity="0" stroke="#000000" stroke-width="1" stroke-opacity="0"></use></g></g><g><use xlink:href="#e3JMEXNCjD" opacity="1" fill="#cee3ea" fill-opacity="1"></use><g><use xlink:href="#e3JMEXNCjD" opacity="1" fill-opacity="0" stroke="#000000" stroke-width="1" stroke-opacity="0"></use></g></g><g><use xlink:href="#b3GWemcGC" opacity="1" fill="#cee3ea" fill-opacity="1"></use><g><use xlink:href="#b3GWemcGC" opacity="1" fill-opacity="0" stroke="#000000" stroke-width="1" stroke-opacity="0"></use></g></g><g><use xlink:href="#g4SOseD3Os" opacity="1" fill="#cee3ea" fill-opacity="1"></use><g><use xlink:href="#g4SOseD3Os" opacity="1" fill-opacity="0" stroke="#000000" stroke-width="1" stroke-opacity="0"></use></g></g><g><use xlink:href="#b4Av8DvRx" opacity="1" fill="#cee3ea" fill-opacity="1"></use><g><use xlink:href="#b4Av8DvRx" opacity="1" fill-opacity="0" stroke="#000000" stroke-width="1" stroke-opacity="0"></use></g></g><g><use xlink:href="#h1GfWt99Da" opacity="1" fill="#d5f0f9" fill-opacity="1"></use><g><use xlink:href="#h1GfWt99Da" opacity="1" fill-opacity="0" stroke="#000000" stroke-width="1" stroke-opacity="0"></use></g></g><g><use xlink:href="#a6NbAKTIyo" opacity="1" fill="#d5f0f9" fill-opacity="1"></use><g><use xlink:href="#a6NbAKTIyo" opacity="1" fill-opacity="0" stroke="#000000" stroke-width="1" stroke-opacity="0"></use></g></g><g><use xlink:href="#ggs9NwdZe" opacity="1" fill="#b8d8d8" fill-opacity="1"></use><g><use xlink:href="#ggs9NwdZe" opacity="1" fill-opacity="0" stroke="#000000" stroke-width="1" stroke-opacity="0"></use></g></g><g><use xlink:href="#fcS5TAOwB" opacity="1" fill="#b8d8d8" fill-opacity="1"></use><g><use xlink:href="#fcS5TAOwB" opacity="1" fill-opacity="0" stroke="#000000" stroke-width="1" stroke-opacity="0"></use></g></g><g><use xlink:href="#bdXaul9LV" opacity="1" fill="#7a9e9f" fill-opacity="1"></use><g><use xlink:href="#bdXaul9LV" opacity="1" fill-opacity="0" stroke="#000000" stroke-width="1" stroke-opacity="0"></use></g></g><g><use xlink:href="#d1WchbbxL" opacity="1" fill="#000000" fill-opacity="0"></use><g><use xlink:href="#d1WchbbxL" opacity="1" fill-opacity="0" stroke="#000000" stroke-width="1" stroke-opacity="0"></use></g></g><g><use xlink:href="#b1hLdNb6jC" opacity="1" fill="#b8d8d8" fill-opacity="1"></use><g><use xlink:href="#b1hLdNb6jC" opacity="1" fill-opacity="0" stroke="#000000" stroke-width="1" stroke-opacity="0"></use></g></g><g><use xlink:href="#cGYUhsPL0" opacity="1" fill="#b8d8d8" fill-opacity="1"></use><g><use xlink:href="#cGYUhsPL0" opacity="1" fill-opacity="0" stroke="#000000" stroke-width="1" stroke-opacity="0"></use></g></g><g><use xlink:href="#c18pmLrv1q" opacity="1" fill="#7a9e9f" fill-opacity="1"></use><g><use xlink:href="#c18pmLrv1q" opacity="1" fill-opacity="0" stroke="#000000" stroke-width="1" stroke-opacity="0"></use></g></g><g><use xlink:href="#b1c7fYNsOO" opacity="1" fill="#7a9e9f" fill-opacity="1"></use><g><use xlink:href="#b1c7fYNsOO" opacity="1" fill-opacity="0" stroke="#000000" stroke-width="1" stroke-opacity="0"></use></g></g><g><use xlink:href="#aHiBavwl7" opacity="1" fill="#b8d8d8" fill-opacity="1"></use><g><use xlink:href="#aHiBavwl7" opacity="1" fill-opacity="0" stroke="#000000" stroke-width="1" stroke-opacity="0"></use></g></g><g><use xlink:href="#d2Y93Ha6rF" opacity="1" fill="#4f6367" fill-opacity="1"></use><g><use xlink:href="#d2Y93Ha6rF" opacity="1" fill-opacity="0" stroke="#000000" stroke-width="1" stroke-opacity="0"></use></g></g><g><use xlink:href="#kprUGfAgB" opacity="1" fill="#7a9e9f" fill-opacity="1"></use><g><use xlink:href="#kprUGfAgB" opacity="1" fill-opacity="0" stroke="#000000" stroke-width="1" stroke-opacity="0"></use></g></g><g><use xlink:href="#b1E8kWJPKJ" opacity="1" fill="#000000" fill-opacity="0"></use><g><use xlink:href="#b1E8kWJPKJ" opacity="1" fill-opacity="0" stroke="#000000" stroke-width="1" stroke-opacity="0"></use></g></g><g><use xlink:href="#bf0p8lM6G" opacity="1" fill="#7a9e9f" fill-opacity="1"></use><g><use xlink:href="#bf0p8lM6G" opacity="1" fill-opacity="0" stroke="#000000" stroke-width="1" stroke-opacity="0"></use></g></g><g><use xlink:href="#a4Mturota" opacity="1" fill="#4f6367" fill-opacity="1"></use><g><use xlink:href="#a4Mturota" opacity="1" fill-opacity="0" stroke="#000000" stroke-width="1" stroke-opacity="0"></use></g></g><g><use xlink:href="#a2a3O2scoi" opacity="1" fill="#b8d8d8" fill-opacity="1"></use><g><use xlink:href="#a2a3O2scoi" opacity="1" fill-opacity="0" stroke="#000000" stroke-width="1" stroke-opacity="0"></use></g></g><g><use xlink:href="#a23q1lvWqM" opacity="1" fill="#7a9e9f" fill-opacity="1"></use><g><use xlink:href="#a23q1lvWqM" opacity="1" fill-opacity="0" stroke="#000000" stroke-width="1" stroke-opacity="0"></use></g></g><g><use xlink:href="#i6iW2dhh" opacity="1" fill="#282828" fill-opacity="1"></use><g><use xlink:href="#i6iW2dhh" opacity="1" fill-opacity="0" stroke="#000000" stroke-width="1" stroke-opacity="0"></use></g></g><g><use xlink:href="#a1WreiiiCC" opacity="1" fill="#4f6367" fill-opacity="1"></use><g><use xlink:href="#a1WreiiiCC" opacity="1" fill-opacity="0" stroke="#000000" stroke-width="1" stroke-opacity="0"></use></g></g><g><use xlink:href="#bkVk0CPav" opacity="1" fill="#282828" fill-opacity="1"></use><g><use xlink:href="#bkVk0CPav" opacity="1" fill-opacity="0" stroke="#000000" stroke-width="1" stroke-opacity="0"></use></g></g><g><use xlink:href="#dS8K0srVk" opacity="1" fill="#b8d8d8" fill-opacity="1"></use><g><use xlink:href="#dS8K0srVk" opacity="1" fill-opacity="0" stroke="#000000" stroke-width="1" stroke-opacity="0"></use></g></g><g><use xlink:href="#a187BkrErL" opacity="1" fill="#b8d8d8" fill-opacity="1"></use><g><use xlink:href="#a187BkrErL" opacity="1" fill-opacity="0" stroke="#000000" stroke-width="1" stroke-opacity="0"></use></g></g><g><use xlink:href="#d1c9UQJWa" opacity="1" fill="#b8d8d8" fill-opacity="1"></use><g><use xlink:href="#d1c9UQJWa" opacity="1" fill-opacity="0" stroke="#000000" stroke-width="1" stroke-opacity="0"></use></g></g><g><use xlink:href="#aho27hrSj" opacity="1" fill="#b8d8d8" fill-opacity="1"></use><g><use xlink:href="#aho27hrSj" opacity="1" fill-opacity="0" stroke="#000000" stroke-width="1" stroke-opacity="0"></use></g></g><g><use xlink:href="#a267RbSTsi" opacity="1" fill="#c8eefc" fill-opacity="1"></use><g><use xlink:href="#a267RbSTsi" opacity="1" fill-opacity="0" stroke="#000000" stroke-width="1" stroke-opacity="0"></use></g></g><g><use xlink:href="#dw5bku62q" opacity="1" fill="#465659" fill-opacity="1"></use><g><use xlink:href="#dw5bku62q" opacity="1" fill-opacity="0" stroke="#000000" stroke-width="1" stroke-opacity="0"></use></g></g><g><use xlink:href="#c2cb95eaOV" opacity="1" fill="#465659" fill-opacity="1"></use><g><use xlink:href="#c2cb95eaOV" opacity="1" fill-opacity="0" stroke="#000000" stroke-width="1" stroke-opacity="0"></use></g></g><g><use xlink:href="#dbGfnkSJ7n" opacity="1" fill="#4f6367" fill-opacity="1"></use><g><use xlink:href="#dbGfnkSJ7n" opacity="1" fill-opacity="0" stroke="#000000" stroke-width="1" stroke-opacity="0"></use></g></g><g><use xlink:href="#eMo1GaJ23" opacity="1" fill="#7a9e9f" fill-opacity="1"></use><g><use xlink:href="#eMo1GaJ23" opacity="1" fill-opacity="0" stroke="#000000" stroke-width="1" stroke-opacity="0"></use></g></g><g><use xlink:href="#afFv6sY4t" opacity="1" fill="#b8d8d8" fill-opacity="1"></use><g><use xlink:href="#afFv6sY4t" opacity="1" fill-opacity="0" stroke="#000000" stroke-width="1" stroke-opacity="0"></use></g></g><g><use xlink:href="#a7Ol7Tokh6" opacity="1" fill="#465659" fill-opacity="1"></use><g><use xlink:href="#a7Ol7Tokh6" opacity="1" fill-opacity="0" stroke="#000000" stroke-width="1" stroke-opacity="0"></use></g></g><g><use xlink:href="#b1y9NtHfn1" opacity="1" fill="#4f6367" fill-opacity="1"></use><g><use xlink:href="#b1y9NtHfn1" opacity="1" fill-opacity="0" stroke="#000000" stroke-width="1" stroke-opacity="0"></use></g></g><g><use xlink:href="#c147xkQfKF" opacity="1" fill="#465659" fill-opacity="1"></use><g><use xlink:href="#c147xkQfKF" opacity="1" fill-opacity="0" stroke="#000000" stroke-width="1" stroke-opacity="0"></use></g></g><g><use xlink:href="#c3SiZcIQuN" opacity="1" fill="#b8d8d8" fill-opacity="1"></use><g><use xlink:href="#c3SiZcIQuN" opacity="1" fill-opacity="0" stroke="#000000" stroke-width="1" stroke-opacity="0"></use></g></g><g><use xlink:href="#a1FsLOzKeK" opacity="1" fill="#7a9e9f" fill-opacity="1"></use><g><use xlink:href="#a1FsLOzKeK" opacity="1" fill-opacity="0" stroke="#000000" stroke-width="1" stroke-opacity="0"></use></g></g><g><use xlink:href="#bi9tPFRhS" opacity="1" fill="#7a9e9f" fill-opacity="1"></use><g><use xlink:href="#bi9tPFRhS" opacity="1" fill-opacity="0" stroke="#000000" stroke-width="1" stroke-opacity="0"></use></g></g><g><use xlink:href="#cDwDYf10k" opacity="1" fill="#b8d8d8" fill-opacity="1"></use><g><use xlink:href="#cDwDYf10k" opacity="1" fill-opacity="0" stroke="#000000" stroke-width="1" stroke-opacity="0"></use></g></g><g><use xlink:href="#a5cH7Yc46g" opacity="1" fill="#4f6367" fill-opacity="1"></use><g><use xlink:href="#a5cH7Yc46g" opacity="1" fill-opacity="0" stroke="#000000" stroke-width="1" stroke-opacity="0"></use></g></g><g><use xlink:href="#c6WCoACK13" opacity="1" fill="#4f6367" fill-opacity="1"></use><g><use xlink:href="#c6WCoACK13" opacity="1" fill-opacity="0" stroke="#000000" stroke-width="1" stroke-opacity="0"></use></g></g><g><use xlink:href="#g2Gnh7fJm" opacity="1" fill="#7a9e9f" fill-opacity="1"></use><g><use xlink:href="#g2Gnh7fJm" opacity="1" fill-opacity="0" stroke="#000000" stroke-width="1" stroke-opacity="0"></use></g></g><g><use xlink:href="#bYfEr3IEG" opacity="1" fill="#eef5db" fill-opacity="1"></use><g><use xlink:href="#bYfEr3IEG" opacity="1" fill-opacity="0" stroke="#000000" stroke-width="1" stroke-opacity="0"></use></g></g><g><use xlink:href="#d13BQRdrzQ" opacity="1" fill="#eef5db" fill-opacity="1"></use><g><use xlink:href="#d13BQRdrzQ" opacity="1" fill-opacity="0" stroke="#000000" stroke-width="1" stroke-opacity="0"></use></g></g></g></g></svg>